<?xml version="1.0" encoding="utf-8"?>
<!-- Generator: Adobe Illustrator 24.1.1, SVG Export Plug-In . SVG Version: 6.00 Build 0)  -->
<svg version="1.1" id="Layer_1" xmlns="http://www.w3.org/2000/svg" xmlns:xlink="http://www.w3.org/1999/xlink" x="0px" y="0px"
	 viewBox="0 0 979.41 240.35" style="enable-background:new 0 0 979.41 240.35;" xml:space="preserve">
<style type="text/css">
	.st0{fill:#009E64;}
	.st1{fill-rule:evenodd;clip-rule:evenodd;fill:#009E64;}
</style>
<g>
	<path class="st0" d="M939.96,174.76c1.99,1.77,3.82,3.64,5.88,5.2c5.86,4.43,13.5,4.42,19.52,0.12c3.87-2.76,4.51-7.32,1.58-11.05
		c-4.4-5.6-10.57-7.75-17.28-8.54c-10.24-1.2-20.12,0.5-29.7,4.26c-7.99,3.14-15.98,6.31-24.06,9.21
		c-8.46,3.04-16.44,1.79-23.73-3.54c-0.3-0.22-0.59-0.46-0.92-0.64c-1.07-0.58-2.15-1.13-3.56-1.87c0,6.74,0.45,13.23-0.1,19.64
		c-0.87,10.11-3.12,19.96-7.95,29.05c-2.69,5.07-6.43,9.09-11.43,11.93c-7.69,4.36-18.1,0.58-21.04-7.66
		c-1.37-3.86,1-10.05,4.55-11.73c2.01-0.95,1.7,0.65,1.62,1.68c-0.34,4.23,0.25,8.16,2.8,11.75c2.76,3.89,6.4,5.41,10.64,4.18
		c3.17-0.92,4.42-3.61,5.33-6.25c2.45-7.08,0.44-13.52-3.45-19.54c-6.1-9.45-15.13-14.1-25.91-16c-5.04-0.89-10.08-1.81-15.03-3.09
		c-7.86-2.03-11.52-7.94-12.83-15.41c-1.79-10.23,2.18-19.09,7.19-27.62c2.29-3.9,4.52-7.83,6.74-11.68
		c-0.2-0.17,0.15-0.01,0.14,0.14c-0.53,8.3,5.27,12.98,10.34,18.03c6.94,6.93,13.89,13.85,21.01,20.59
		c5.37,5.09,8.77,11.42,12.12,17.83c0.45,0.86,0.95,1.68,1.43,2.52c0.29-0.05,0.58-0.1,0.87-0.15c-0.16-1.32-0.2-2.67-0.51-3.95
		c-2.45-9.94-8.35-17.55-15.74-24.41c-7.84-7.27-15.28-14.99-22.66-22.73c-1.62-1.7-2.69-4.24-3.27-6.58c-1.28-5.18,1.28-8.3,6.64-9
		c13.49-1.78,24.51,2.21,32.74,13.41c2.11,2.87,4.85,5.31,7.44,7.79c2.53,2.42,5.62,3.55,9.17,3.55c15.23,0,30.47,0.33,45.7-0.01
		c9.91-0.22,19.35,1.26,28.54,4.87c1.48,0.58,3.26,0.38,4.9,0.54c-1.23-1.09-2.29-2.5-3.7-3.22c-8.1-4.15-16.64-6.32-25.85-6.34
		c-12.35-0.03-24.7-0.55-37.05-0.91c-3.49-0.1-6.98-0.35-10.47-0.58c-1.87-0.12-3.77-0.17-5.58-0.58c-6.5-1.45-7.92-5.71-3.43-10.52
		c4.93-5.29,11.45-7.77,18.21-9.7c12.1-3.46,24.21-2.52,36.31,0.06c13.48,2.88,26,7.93,36.68,16.81
		c9.45,7.86,17.29,17.05,19.41,29.61c1.27,7.55-1.27,14.51-7.31,19.36c-5.7,4.58-12.59,5.35-19.51,3.2
		C939.25,184.91,937.88,181.33,939.96,174.76z"/>
	<path class="st0" d="M887.01,42.37c-2.75-0.68-4.77-2.57-4.61-5.13c0.15-2.36,1.21-5.25,2.89-6.82c4.81-4.51,10.97-4.19,16.61-2.31
		c13.31,4.44,19.72,12.41,20.62,27.57c0.88,14.81-3.99,27.87-14.95,38.11c-11.19,10.46-24.74,15.1-39.98,14.44
		c-4.07-0.17-8.11-1.17-12.13-1.98c-1.29-0.26-2.56-0.95-3.66-1.7c-3.45-2.33-3.81-3.63-0.53-6.29c3.53-2.86,7.56-5.25,11.67-7.22
		c11.23-5.38,22.74-10.17,33.87-15.73c4.99-2.49,9.16-6.43,11.69-11.67c0.37-0.77,0.26-1.78,0.37-2.68c-0.74,0.33-1.57,0.53-2.21,1
		c-4.69,3.47-9.02,7.58-14.08,10.36c-7.84,4.31-16.15,7.78-24.3,11.51c-5.43,2.49-10.98,4.73-16.37,7.3
		c-1.38,0.66-2.8,1.91-3.46,3.26c-2.75,5.58-7.37,9.63-11.2,14.31c-3.33,4.07-7.74,6.16-12.87,6.9c-1.48,0.21-2.96,0.45-4.44,0.68
		c-6.68,1.01-10.37-3.24-8.41-9.94c1.05-3.58,2.39-7.1,3.84-10.54c4.47-10.56,9.31-20.97,13.52-31.63c2.95-7.45,1.84-15.3,1.32-23
		c-0.4-0.06-0.81-0.12-1.21-0.18c-0.38,1.46-0.85,2.91-1.13,4.4c-1.32,6.96-1.76,14.22-4.07,20.84c-3.1,8.91-7.61,17.33-11.53,25.95
		c-3.27,7.21-6.52,14.42-4.12,22.88c-8.09-6.21-18.02-9.44-24.14-18.25c-8.32-11.97-4.57-24.03,5.56-31.83
		c6.4-4.92,13.12-9.54,18.9-15.12c8.09-7.81,10.27-18.04,9.01-28.95c-0.7-6.09-6.9-10.65-12.25-9.54
		c-6.7,1.39-10.22,7.01-8.52,13.75c0.52,2.05,1.29,4.04,1.92,6.06c0.21,0.68,0.32,1.39,0.47,2.08c-0.82-0.03-1.68,0.07-2.46-0.12
		c-4.11-1-6.25-3.87-7.12-7.83c-0.92-4.17,0.54-7.62,3.52-10.45c3.43-3.27,7.56-4.16,12.31-4.36c7.56-0.31,14.34,1.19,20.38,5.77
		c7.48,5.67,13.17,12.9,17.03,21.33c2.88,6.3,4.69,13.09,7.11,19.62c0.32,0.86,1.46,2.05,2.2,2.03c8.08-0.21,16.16-0.67,24.24-0.97
		c8.02-0.29,15.93-0.84,23.13-5.04c4.2-2.45,7.76-5.45,9.93-9.84c1.5-3.04,2.06-6.35,0.04-9.29c-2.23-3.24-5.68-4.42-9.52-3.92
		C893.69,31.03,888.13,33.07,887.01,42.37z"/>
	<path d="M489.95,53.37c8.57,6.66,11.73,16.48,16.84,25.05c1.55,2.61,3.95,4.7,5.94,7.06c0.42,0.5,0.71,1.09,1.06,1.65
		c-0.55,0.18-1.11,0.53-1.66,0.53c-8.86,0.02-17.73,0.07-26.58-0.11c-1.05-0.02-2.52-1.15-3.04-2.16
		c-3.81-7.41-7.4-14.93-11.1-22.39c-0.88-1.78-1.76-3.59-2.91-5.2c-0.47-0.66-1.63-0.84-2.48-1.24c-0.27,0.76-0.79,1.52-0.79,2.29
		c0.01,6.37,0.05,12.74,0.2,19.1c0.09,3.72,1.7,6.43,5.53,7.52c0.7,0.2,1.23,0.97,1.84,1.48c-0.77,0.25-1.53,0.71-2.3,0.71
		c-11.86,0.03-23.72,0.03-35.57-0.04c-0.83-0.01-1.67-0.59-2.5-0.91c0.75-0.52,1.43-1.26,2.26-1.53c3.01-1,4.51-3.06,4.52-6.15
		c0.05-16.1,0.06-32.19,0.07-48.29c0-3.79-1.47-6.5-5.44-7.41c-0.51-0.12-0.91-0.66-1.37-1.01c0.47-0.28,0.94-0.82,1.4-0.81
		c18.07,0.36,36.15,0.51,54.19,1.36c4.52,0.21,9.35,2.05,12.1,6.51c5.33,8.63,2.2,18.44-7.18,22.75
		C492.11,52.51,491.21,52.85,489.95,53.37z M465.21,39.02c0,2.61-0.01,5.22,0,7.84c0.02,5.75,0.02,5.75,5.44,3.46
		c5.29-2.22,7.67-6.98,6.91-13.79c-0.55-4.89-4.76-9.31-9.56-10.13c-1.81-0.31-2.86,0.04-2.81,2.18
		C465.27,32.06,465.21,35.54,465.21,39.02z"/>
	<path d="M565.77,89.38c-12.14-0.42-22.53-1.81-31.6-8.27c-4.92-3.51-8.85-8.01-10.57-13.65c-4.88-15.96-2.06-33.02,14.75-42.01
		c10.05-5.37,21.11-6.55,32.34-5.38c7.32,0.76,14.47,2.29,20.96,6.2c12.44,7.5,16.6,20.19,15.06,33.34
		c-1.9,16.25-13.77,25.99-30.46,28.61C572.32,88.83,568.34,89.1,565.77,89.38z M550.07,53.95c0,1.37-0.1,2.75,0.02,4.12
		c0.58,6.69,0.8,13.46,4.41,19.48c3.01,5.02,8.87,6.97,14.17,4.59c5.22-2.35,7.61-7,8.32-12.09c0.98-7,1.39-14.16,1.22-21.23
		c-0.14-5.91-0.67-11.94-4.13-17.24c-2.47-3.8-5.77-5.97-10.18-5.83c-4.39,0.14-7.61,2.44-9.77,6.42
		C550.4,39.03,550.22,46.47,550.07,53.95z"/>
	<path d="M274.61,56.91c-0.4,0.74-0.71,1.05-0.71,1.36c0.04,6.74,0.03,13.49,0.22,20.23c0.08,3.01,1.14,5.57,4.4,6.66
		c0.69,0.23,1.18,1.05,1.76,1.6c-0.73,0.3-1.46,0.86-2.18,0.87c-11.98,0.05-23.97,0.05-35.95,0c-0.64,0-1.28-0.49-1.92-0.75
		c0.48-0.48,0.89-1.24,1.46-1.39c4.73-1.18,5.78-4.78,5.79-8.89c0.06-14.74,0.04-29.48,0-44.22c-0.01-5.02-2.14-8.59-7.85-9.46
		c0.14-0.33,0.28-0.67,0.42-1c0.95-0.17,1.9-0.47,2.86-0.47c11.48-0.03,22.97-0.04,34.45,0.02c0.96,0.01,1.92,0.57,2.89,0.87
		c-0.74,0.57-1.4,1.36-2.24,1.68c-2.6,1-3.69,3.22-3.78,5.56c-0.25,6.2-0.08,12.41-0.08,19.45c4.15-4.46,7.88-8.47,11.6-12.48
		c1.78-1.92,3.64-3.78,5.32-5.78c3.08-3.65,2.36-5.95-2.18-7.38c-0.74-0.23-1.46-0.56-2.76-1.07c1.05-0.47,1.47-0.82,1.89-0.83
		c7.61-0.05,15.23-0.07,22.84-0.03c0.62,0,1.24,0.53,1.86,0.81c-0.45,0.34-0.86,0.93-1.34,0.99c-7.61,0.96-12.16,6.42-16.8,11.6
		c-3.72,4.15-3.64,4.32-0.42,8.98c8.84,12.79,17.71,25.56,26.67,38.26c0.95,1.35,2.68,2.14,3.96,3.29c0.47,0.42,0.66,1.14,0.98,1.73
		c-0.55,0.18-1.11,0.5-1.66,0.5c-4.37,0.04-8.74,0.03-13.11,0.03c-7.74,0-15.48,0.02-23.22-0.03c-0.73-0.01-1.46-0.51-2.19-0.78
		c0.54-0.44,1.02-1.04,1.64-1.3c2.68-1.11,2.81-2.97,1.51-5.14C284.13,72.65,279.44,64.92,274.61,56.91z"/>
	<path d="M31.16,61.65c0-10.24,0.01-20.47-0.01-30.71c-0.01-3.75-1.43-6.49-5.35-7.52c-0.67-0.18-1.2-0.88-1.79-1.35
		c0.8-0.22,1.6-0.62,2.4-0.62c12.1-0.04,24.21-0.02,36.31-0.02c0.25,0,0.53-0.07,0.74,0.02c0.61,0.26,1.2,0.58,1.8,0.88
		c-0.53,0.4-1.01,1.03-1.6,1.17c-4.44,1.08-6.19,3.76-6.17,8.4c0.11,18.98,0.08,37.96-0.2,56.94c-0.06,4.15-1.02,8.38-2.13,12.41
		c-1.79,6.51-6.53,10.17-13,11.39c-7.2,1.36-14.34,1.18-21.28-1.7c-5.05-2.1-7.76-6.01-9.24-11c-0.19-0.65,0-1.41,0.02-2.12
		c0.69,0.34,1.61,0.49,2.04,1.04c2.38,3.06,5.32,4.8,9.3,4.55c3.64-0.23,6.31-1.96,7.05-5.55c0.78-3.75,1.17-7.64,1.26-11.48
		c0.18-8.24,0.06-16.48,0.06-24.72C31.29,61.65,31.22,61.65,31.16,61.65z"/>
	<path d="M622.51,77.88c0-2.62-0.06-5.25,0.04-7.87c0.03-0.76,0.55-1.5,0.85-2.24c0.53,0.69,1.31,1.31,1.55,2.09
		c2.43,7.82,8.89,13.41,16.25,13.96c5.66,0.43,9.86-2.48,9.99-7.04c0.11-3.85-2.02-6.51-4.91-8.71
		c-5.34-4.07-10.84-7.95-15.97-12.27c-9.63-8.09-10.26-21.48-1.42-29.52c5.35-4.87,12.21-6.38,19.08-6.39
		c5.91-0.01,11.82,1.46,17.75,2.11c1.72,0.19,3.66,0.15,5.24-0.46c2.23-0.87,2.65-0.13,2.64,1.85c-0.03,4.12,0.05,8.24-0.06,12.36
		c-0.02,0.94-0.64,1.86-0.99,2.79c-0.61-0.72-1.3-1.38-1.81-2.16c-1.53-2.38-2.74-5.01-4.51-7.19c-3.07-3.76-9.16-5.15-13.63-3.52
		c-5.05,1.84-6.83,7.61-3.05,11.42c3.46,3.48,7.59,6.31,11.53,9.3c5.05,3.82,10.1,7.53,13.21,13.35
		c6.02,11.26,0.77,24.18-11.41,27.98c-8.51,2.66-17.01,1.76-25.54,0.41c-2.34-0.37-4.66-1.02-7.01-1.18
		c-1.74-0.12-3.69-0.04-5.25,0.64c-1.93,0.85-2.54,0.47-2.56-1.45C622.49,83.37,622.51,80.63,622.51,77.88z"/>
	<path d="M92.44,87.66c-2.4,0-4.81,0-7.21,0c-3.87,0-7.74,0.04-11.61-0.03c-0.63-0.01-1.24-0.52-1.87-0.79
		c0.4-0.43,0.72-1.09,1.2-1.26c4.53-1.57,6.17-5.41,7.71-9.44c4.89-12.78,9.87-25.53,14.77-38.31c1.65-4.3,3.25-8.62,4.71-12.98
		c0.81-2.43,1.98-3.66,4.81-3.5c4.6,0.26,9.24,0.21,13.85,0.02c2.5-0.11,3.77,0.65,4.67,3.09c4.18,11.32,8.59,22.56,12.89,33.84
		c2.62,6.86,5.13,13.76,7.84,20.58c1.21,3.05,2.92,5.82,6.47,6.77c0.64,0.17,1.19,0.69,1.7,1.72c-1.03,0.1-2.07,0.29-3.1,0.3
		c-11.73,0.03-23.46,0.02-35.19,0.02c-0.62,0-1.27,0.05-1.86-0.08c-0.43-0.1-0.79-0.47-1.18-0.71c0.29-0.37,0.51-0.86,0.89-1.08
		c0.53-0.3,1.19-0.35,1.77-0.57c3.09-1.15,4.44-3.25,3.49-6.42c-1.22-4.05-2.78-8-4.42-11.9c-0.31-0.75-1.64-1.5-2.51-1.52
		c-5.86-0.13-11.73-0.11-17.59,0c-0.81,0.02-2.07,0.62-2.34,1.28c-1.46,3.57-2.92,7.17-3.9,10.89c-1.32,4.99-0.41,6.36,4.36,8.18
		c0.62,0.24,1.17,0.64,1.75,0.97C92.51,87.03,92.47,87.34,92.44,87.66z M102.04,37.73c-0.27,0.06-0.53,0.13-0.8,0.19
		c-2.45,6.5-4.9,13-7.36,19.49c-0.7,1.86,0.03,2.47,1.87,2.44c3.99-0.06,7.99-0.06,11.98-0.02c1.66,0.02,2.3-0.48,1.65-2.21
		C106.91,51.01,104.48,44.37,102.04,37.73z"/>
	<path d="M225.59,72.02c1.05,3.43-0.84,5.46-2.79,7.4c-8.78,8.75-19.62,10.85-31.42,9.45c-8.19-0.97-15.94-3.37-21.81-9.52
		c-10.64-11.17-12.01-24.27-6.76-38.2c4.09-10.84,12.44-16.91,23.56-19.87c10.32-2.75,20.3-1.11,30.34,1.07
		c2.23,0.48,4.34,1.12,6.19-1.02c1.2-1.39,1.97-0.72,1.98,0.87c0.04,6.87,0.04,13.75-0.01,20.62c0,0.5-0.5,1-0.77,1.5
		c-0.44-0.36-1.05-0.63-1.28-1.09c-1.71-3.45-3.12-7.07-5.07-10.37c-2.31-3.91-5.88-6.44-10.43-7.23
		c-6.3-1.09-11.59,1.97-14.72,7.84c-3.95,7.41-4.05,15.29-3.52,23.34c0.39,5.85,1.85,11.3,5.52,15.98
		c5.92,7.56,15.51,9.39,23.7,4.43C220.74,75.73,222.96,73.9,225.59,72.02z"/>
	<path d="M365.12,86.83c1.42-0.67,2.2-1.19,3.06-1.41c3.39-0.9,4.77-3.4,5.22-6.57c0.26-1.85,0.36-3.73,0.37-5.6
		c0.03-12.87,0.02-25.73,0-38.6c0-1.49-0.12-2.99-0.22-4.48c-0.24-3.66-2.01-6.04-5.73-6.8c-0.68-0.14-1.32-0.43-2.07-1.47
		c0.95-0.16,1.9-0.47,2.86-0.47c15.23-0.03,30.46,0.02,45.69-0.07c2.35-0.01,3.37,0.72,3.51,3.09c0.15,2.48,0.63,4.95,0.88,7.43
		c0.07,0.67-0.18,1.37-0.29,2.06c-0.7-0.38-1.66-0.59-2.06-1.18c-3.17-4.69-7.69-6.38-13.14-6.43c-2.35-0.02-3.34,0.59-3.27,3.14
		c0.16,6.24,0.14,12.49,0.01,18.74c-0.05,2.41,0.94,3.02,3.11,2.88c4.57-0.3,8.67-1.24,10.34-6.31c0.15-0.46,0.79-0.76,1.2-1.13
		c0.25,0.51,0.71,1.01,0.71,1.52c0.06,5.5,0.07,10.99,0.01,16.49c-0.01,0.6-0.57,1.2-0.87,1.8c-0.38-0.45-0.85-0.85-1.13-1.35
		c-2.76-4.91-5.86-6.59-11.29-5.79c-0.75,0.11-1.92,1.23-1.93,1.9c-0.11,6.87-0.16,13.74,0.07,20.6c0.12,3.62,2.16,5.97,5.92,6.65
		c0.71,0.13,1.3,0.93,1.94,1.42c-0.65,0.26-1.29,0.74-1.94,0.74c-12.98,0.03-25.96,0.01-38.94-0.03
		C366.69,87.59,366.27,87.28,365.12,86.83z"/>
	<path d="M740,87.35c-1.04,0.1-2.08,0.29-3.12,0.29c-11.74,0.02-23.47,0.02-35.21,0.02c-0.62,0-1.27,0.06-1.86-0.08
		c-0.4-0.1-0.72-0.51-1.08-0.78c0.31-0.34,0.59-0.93,0.95-0.99c6.31-0.99,6.37-5.79,6.38-10.53c0.04-14.99,0.02-29.99,0-44.98
		c-0.01-3.71-0.39-3.84-4.18-3.55c-5.87,0.45-9.83,3.16-11.58,8.9c-0.14,0.46-0.67,0.8-1.03,1.2c-0.23-0.51-0.66-1.03-0.64-1.54
		c0.11-4.37,0.23-8.74,0.55-13.1c0.04-0.54,1.25-1.43,1.91-1.42c4.34,0.09,8.68,0.55,13.02,0.58c12.49,0.09,24.97,0.04,37.46,0.03
		c1.25,0,2.63,0.25,3.71-0.2c3.4-1.39,4.16,0.1,4.15,3.16c-0.01,3.49,0.27,6.99,0.31,10.48c0.01,0.73-0.48,1.47-0.74,2.21
		c-0.42-0.55-1.09-1.05-1.24-1.67c-1.54-6.29-6.25-8.18-11.95-8.88c-2.48-0.3-3.7,0.29-3.69,3.11c0.09,15.87,0.01,31.74,0.09,47.61
		c0.03,5.29,1.24,6.73,6.1,8.4c0.63,0.22,1.17,0.69,1.76,1.04C740.06,86.91,740.03,87.13,740,87.35z"/>
	<path d="M255.72,119.1c11.43,1.16,22.38-1.8,32.97,2.83c8.46,3.7,11.08,14.63,7.53,21.88c-2.46,5.02-6.7,8.02-12.04,8.34
		c-9.07,0.54-18.19,0.34-27.29,0.42c-0.18,0-0.37-0.28-0.81-0.64c3.63-1.48,3.67-4.5,3.6-7.69c-0.11-5.24-0.03-10.49-0.04-15.74
		C259.63,123.02,259.63,123.02,255.72,119.1z M272.41,134.64c0.01,0,0.02,0,0.03,0c0,3.37-0.23,6.77,0.1,10.11
		c0.16,1.65,1.34,3.21,2.06,4.81c1.71-0.77,3.85-1.14,5.05-2.39c3.87-4.05,4.92-14.36,1.79-18.98c-1.53-2.25-3.97-4-6.28-5.55
		c-1.52-1.02-2.82-0.35-2.77,1.88C272.47,127.9,272.41,131.27,272.41,134.64z"/>
	<path d="M277.55,212.35c4.31-4.21,4.33-25.92-0.35-31.34c9.14,0.38,17.75,0.33,26.26,1.24c6.65,0.71,10.98,5.02,12.61,11.62
		c1.59,6.45-0.4,11.89-5.53,15.9c-1.76,1.38-4.3,2.39-6.51,2.46C295.33,212.52,286.63,212.35,277.55,212.35z M302.73,197.15
		c0.34-6.85-3.61-11.77-7.58-12.74c-1.36-0.33-2.26-0.39-2.25,1.27c0.04,7.22-0.04,14.44,0.25,21.64c0.11,2.8,2.58,3.57,4.86,1.85
		C302.04,206.13,302.49,201.68,302.73,197.15z"/>
	<path d="M710.18,212.58c0.77-1.94,2-3.69,2.07-5.47c0.23-6.84,0.2-13.71,0-20.55c-0.05-1.62-1.15-3.2-1.92-5.22
		c8.7,0.34,17.93-0.95,27.06,1.23c2.97,0.71,5.02,3.08,4.76,5.95c-0.21,2.3-1.55,5.11-3.32,6.51c-2.11,1.67-1.64,2.17-0.28,3.84
		c1.78,2.19,3.06,4.79,4.52,7.23c0.64,1.06,1.16,2.2,1.83,3.24c0.64,0.99,1.41,1.89,2.13,2.83c-1.39,0.2-2.79,0.34-4.17,0.62
		c-7.55,1.52-12.32-1.39-14.25-8.88c-0.03-0.12-0.11-0.22-0.18-0.33c-1.11-1.65-2.21-3.3-3.32-4.95c-0.19,2.05-0.5,4.09-0.54,6.14
		c-0.06,2.93-0.39,6.05,3.12,7.81C721.69,212.58,715.69,212.58,710.18,212.58z M731.14,189.54c-1.25-1.74-2.18-3.62-3.64-4.92
		c-1.47-1.31-3.01-1.22-2.94,1.46c0.05,2.1-0.08,4.21,0.03,6.31c0.05,1.01,0.47,2,0.72,3c1.13-0.42,2.58-0.53,3.32-1.32
		C729.66,192.98,730.16,191.38,731.14,189.54z"/>
	<path d="M222,212.59c2.58-1.32,2.89-3.38,2.86-5.81c-0.08-6.61,0.1-13.22-0.12-19.83c-0.06-1.79-1.2-3.54-2.08-5.97
		c8.46,0.43,17.43,0.77,26.38,1.42c3.17,0.23,5.15,2.46,5.66,5.63c0.5,3.1-0.53,5.73-3.38,7.24c-1.77,0.94-1.94,1.43-0.62,3.18
		c2.38,3.15,4.22,6.71,6.31,10.09c0.8,1.29,1.65,2.54,2.48,3.81c-1.7,0.14-3.39,0.39-5.09,0.42c-9.76,0.12-9.74,0.1-13.51-9.46
		c-0.69-1.75-1.6-3.41-2.99-4.9c-0.19,4.86-2.82,9.99,2.44,14.19C234.01,212.59,228,212.59,222,212.59z M237.09,189.51
		c0,0.62-0.12,1.27,0.02,1.86c0.34,1.39,0.81,2.74,1.23,4.11c1.41-1.08,3.26-1.9,4.12-3.32c1.31-2.16,0.9-4.67-1-6.48
		c-0.91-0.87-2.33-1.2-3.51-1.78c-0.28,1.12-0.63,2.24-0.83,3.38C236.99,188.01,237.1,188.77,237.09,189.51z"/>
	<path d="M66.52,208.96c-3.07,4.81-8.05,6.12-13.77,3.16c-2.44-1.27-4.2-1.12-6.51-0.1c-4.37,1.94-8.92,2.17-13.45,0.4
		c-2.86-1.12-4.92-3.02-5.26-6.2c-0.34-3.18,1.42-5.45,3.78-7.29c1.45-1.12,3.73-1.83,4.29-3.25c0.46-1.15-1.12-3.09-1.73-4.7
		c-1.51-4,0-7.48,3.99-9.04c4.33-1.7,8.71-1.88,13.07-0.04c2.21,0.93,3.85,2.31,3.83,4.97c-0.01,2.47-0.99,4.3-3.33,5.35
		c-0.89,0.4-1.67,1.05-2.59,1.66c1.34,1.63,2.5,3.25,3.89,4.65c0.76,0.77,1.89,1.18,2.85,1.75c0.4-1.52,1.05-3.03,1.09-4.55
		c0.02-0.73-1.1-1.49-2.04-2.65c3.32,0,6.27,0,9.29,0c-1.59,1.95-3.44,3.73-4.67,5.88c-0.89,1.56-1.82,3.97-1.21,5.32
		c1.14,2.53,3.23,4.79,6.6,4.7C65.22,208.95,65.8,208.96,66.52,208.96z M37.96,201.41c0,3.55,2.95,7.36,5.89,7.9
		c0.85,0.16,1.83-0.35,2.75-0.56c-0.25-0.71-0.33-1.56-0.77-2.11c-1.61-2.02-3.31-3.99-5.07-5.89c-0.45-0.49-1.54-1.11-1.76-0.94
		C38.4,200.26,38.12,201.13,37.96,201.41z M48.11,186.93c-1.41-1.35-2.59-2.47-3.76-3.6c-0.67,0.76-2.07,1.86-1.9,2.24
		c0.84,1.81,2.1,3.43,3.21,5.12C46.32,189.67,46.98,188.65,48.11,186.93z"/>
	<path d="M586.5,152.45c-7.02,0-13.63,0-20.23,0c3.54-1.92,3.4-5.15,3.39-8.35c-0.02-5.61,0-11.22-0.01-16.83
		c0-2.99,0.15-6.06-3.33-7.59c8.77,0,17.63-0.8,26.28,0.22c8.89,1.04,9.85,8.07,7.39,12.95c-1.7,3.38-5.01,4.62-8.52,5.31
		c-0.61,0.12-1.28-0.05-1.86,0.14c-2.33,0.75-5.69-1.55-7.03,1.48C580.77,143.85,582.83,149.92,586.5,152.45z M582.42,128.37
		c0,1.24-0.11,2.5,0.03,3.72c0.11,1.02,0.52,2.01,0.79,3.01c1.16-0.59,2.64-0.91,3.42-1.83c2.1-2.49,1.77-7.42-0.56-9.63
		c-0.72-0.68-1.93-0.85-2.91-1.26c-0.26,0.88-0.64,1.74-0.74,2.64C582.31,126.12,582.41,127.25,582.42,128.37z"/>
	<path d="M183.28,130.25c0,5.84-0.22,11.69,0.14,17.5c0.1,1.59,1.92,3.08,3.01,4.71c-2.9,0-6.04,0-10.26,0
		c4.93-2.48,4.33-6.3,4.34-9.92c0.01-3.75-0.25-7.52,0.06-11.24c0.43-5.15-1.23-8.97-5.92-11.92c5.51,0,11.01-0.05,16.52,0.07
		c0.62,0.01,1.29,0.99,1.83,1.62c4.36,5.06,8.69,10.15,13.49,15.09c-0.73-5.52,3.09-11.72-3.33-16.61c3.46,0,6.53,0,9.61,0
		c-3.29,2-3.17,5.08-3.12,8.24c0.09,7,0.09,14-0.03,21c-0.02,1.29-0.73,3.64-1.22,3.66c-2.18,0.11-4.61,1.31-6.55-1.12
		c-5.42-6.79-11-13.45-16.49-20.18c-0.39-0.48-0.51-1.17-0.76-1.76C184.16,129.69,183.72,129.97,183.28,130.25z"/>
	<path d="M147.86,189.82c-0.94-1.09-1.84-2.23-2.83-3.28c-2.88-3.06-6.38-4.45-10.48-3.13c-4,1.28-6,4.51-6.33,8.46
		c-0.34,4.21-0.27,8.47,0.02,12.69c0.11,1.59,1,3.43,2.12,4.56c0.95,0.96,2.83,1.54,4.17,1.36c0.76-0.11,1.75-2.06,1.8-3.21
		c0.12-2.87,1.08-6.1-2.06-8.41c5.43,0,10.86,0,15.72,0c-0.48,3.12-0.85,6.28-1.49,9.39c-0.24,1.17-0.86,2.96-1.69,3.21
		c-6.99,2.09-14.07,3.22-21.31,1.02c-10.57-3.21-12.41-11.59-10.58-20.04c1.39-6.45,6.66-10.74,14.08-11.38
		c4.03-0.35,8.15,0.32,12.23,0.58c0.86,0.06,1.7,0.45,2.56,0.53c1.41,0.14,3.97-0.12,4.07,0.28c0.56,2.3,0.54,4.75,0.72,7.14
		C148.35,189.67,148.1,189.74,147.86,189.82z"/>
	<path d="M716.18,142.85c2,2.38,3.42,4.77,5.48,6.3c1.42,1.05,3.77,1.4,5.61,1.21c3.29-0.34,4.43-3.67,2.08-6.03
		c-2.08-2.09-4.59-3.73-6.9-5.59c-1.16-0.94-2.4-1.82-3.4-2.91c-2.66-2.88-3.48-6.28-2.33-10.06c1.14-3.73,4.01-5.9,7.57-6.34
		c4.02-0.5,8.16-0.1,12.24,0c1.63,0.04,4.22-0.19,4.68,0.63c0.8,1.45,0.3,3.62,0.3,5.49c0,0.6-0.1,1.21-0.2,2.4
		c-1.12-1.58-1.75-2.9-2.76-3.79c-1.16-1.03-2.56-1.99-4.01-2.43c-2.12-0.65-4.75-0.45-5.36,1.91c-0.38,1.47,0.72,3.85,1.92,5.07
		c2.15,2.19,4.89,3.79,7.36,5.68c0.67,0.51,1.31,1.09,1.84,1.74c2.76,3.42,4.2,7.24,2.12,11.42c-2.25,4.52-6.41,6.16-11.21,5.96
		c-3.59-0.15-7.15-0.83-10.74-1.18c-1.38-0.14-3.9,0.28-3.99-0.07c-0.51-1.86-0.46-3.89-0.51-5.87
		C715.95,145.19,716.1,144.01,716.18,142.85z"/>
	<path d="M495.81,152.45c-3.49,0-6.61,0-9.27,0c1.35-2.48,2.96-4.87,4.02-7.49c3.21-7.95,6.19-16,9.33-23.99
		c0.26-0.66,1.03-1.55,1.6-1.59c2.73-0.16,5.57-0.46,8.17,0.14c1.17,0.27,2.17,2.4,2.76,3.88c3.14,7.85,6.05,15.78,9.2,23.62
		c0.77,1.92,2.16,3.58,3.33,5.46c-6.14,0-12.63,0-19.34,0c2.58-2.54,2.96-9.29,0.21-10.21c-3.24-1.07-7.61-1.16-10.63,0.22
		C492.1,143.91,492.75,150.08,495.81,152.45z M500.35,127.75c-0.7,2.02-1.05,3.2-1.52,4.33c-0.47,1.14-1.15,2.19-1.58,3.34
		c-0.68,1.84-0.89,3.22,1.98,3.26c5.46,0.08,5.72-0.09,3.75-5.27C502.35,131.72,501.46,130.11,500.35,127.75z"/>
	<path d="M136.02,152.46c-6.28,0-12.9,0-19.83,0c3.05-2.71,3.27-7.33,0.68-10.16c-0.43-0.47-1.27-0.71-1.96-0.78
		c-1.24-0.12-2.49-0.04-3.74-0.04c-5.01-0.01-7.19,1.8-7.4,6.8c-0.06,1.34,1.33,2.73,2.09,4.17c-2.67,0-5.79,0-8.47,0
		c1.48-2.72,3.21-5.31,4.35-8.14c2.7-6.7,5.06-13.54,7.69-20.27c0.65-1.66,1.58-4.2,2.77-4.44c2.97-0.61,6.17-0.18,9.27-0.02
		c0.31,0.02,0.64,0.94,0.85,1.49c3.24,8.49,6.35,17.03,9.75,25.46C132.93,148.67,134.66,150.47,136.02,152.46z M111.25,127.84
		c-0.94,2.33-1.66,3.89-2.21,5.51c-1.92,5.64-1.85,5.62,4.14,5.32c2.37-0.12,2.4-1.06,1.62-2.79
		C113.73,133.53,112.71,131.16,111.25,127.84z"/>
	<path d="M367.14,127.77c-0.69-1-1.23-2.18-2.1-2.97c-1.32-1.2-2.78-2.8-4.35-3c-1.64-0.22-4.22,0.49-5.06,1.71
		c-1.24,1.81-0.25,4.04,1.73,5.47c2.72,1.98,5.45,3.95,8.07,6.05c4.21,3.38,4.64,8.09,3.04,12.6c-1.39,3.94-5.34,5.6-9.35,5.76
		c-3.71,0.15-7.44-0.48-11.16-0.75c-1.79-0.13-4.89,0.2-5.12-0.46c-0.74-2.13-0.43-4.63-0.49-6.99c-0.02-0.7,0.08-1.4,0.18-2.99
		c1.11,1.99,1.52,3.62,2.56,4.39c2.09,1.56,4.41,3.08,6.87,3.78c1.14,0.32,3.58-0.98,4.08-2.14c0.51-1.19-0.13-3.56-1.12-4.59
		c-2.05-2.11-4.81-3.53-7.02-5.51c-1.72-1.55-3.59-3.3-4.47-5.36c-2.67-6.29,1.08-12.83,7.92-13.46c5.15-0.47,10.39-0.01,15.59,0.16
		c0.39,0.01,1.04,0.96,1.07,1.5c0.12,2.2,0.05,4.4,0.05,6.6C367.75,127.64,367.45,127.71,367.14,127.77z"/>
	<path d="M588.8,181.54c2.82,0,5.37,0,7.93,0c-2.87,2.31-2.48,5.39-2.48,8.36c0.01,6.25,0.07,12.49-0.04,18.73
		c-0.02,1.34-0.44,3.65-1.11,3.82c-2.16,0.54-4.58,1.17-6.45-1.26c-3.04-3.94-6.29-7.73-9.48-11.56c-2.21-2.66-4.47-5.3-7.24-8.58
		c0,6.69-0.12,12.57,0.12,18.43c0.04,0.97,1.62,1.88,2.74,3.08c-3.16,0-6.07,0-10.19,0c4.97-2.2,4.08-5.86,4.12-9.2
		c0.04-3.5-0.23-7.02,0.07-10.49c0.41-4.62-0.71-8.34-4.83-11.44c4.88,0,9.77-0.18,14.63,0.13c1.18,0.07,2.41,1.62,3.35,2.72
		c3.68,4.33,7.26,8.75,11.26,13.01C591.03,192.09,593.66,186.58,588.8,181.54z"/>
	<path d="M643.88,119.3c8.32,0,16.63-0.04,24.94,0.08c0.6,0.01,1.58,1.08,1.69,1.77c0.25,1.58,0.08,3.22,0.08,5.9
		c-1.34-1.45-1.95-2.63-2.88-3.02c-1.97-0.83-4.1-1.36-6.21-1.73c-0.33-0.06-1.26,1.31-1.32,2.06c-0.18,2.23-0.17,4.49-0.04,6.73
		c0.07,1.11,0.59,3.15,0.87,3.15c1.66-0.04,3.4-0.36,4.93-1c0.73-0.31,1.06-1.56,2.11-3.23c0,4.2,0,7.47,0,10.14
		c-1.88-0.94-3.73-2.06-5.74-2.72c-0.47-0.15-2.02,1.22-2.1,1.98c-0.26,2.72-0.03,5.49-0.13,8.23c-0.08,2.13,1.08,2.46,2.83,2.38
		c3.56-0.15,5.85-2.25,8.3-4.91c-0.2,2.01-0.24,4.05-0.68,6.01c-0.14,0.65-1.28,1.53-1.97,1.54c-7.98,0.09-15.96,0.05-23.95,0.01
		c-0.31,0-0.61-0.32-1.26-0.68c3.58-1.41,4.07-4.19,4.01-7.37c-0.11-6.11-0.13-12.23,0-18.35c0.06-2.92-0.62-5.17-3.82-6.1
		C643.66,119.86,643.77,119.58,643.88,119.3z"/>
	<path d="M446.18,144.74c-0.7,4.46-3.58,5.62-6.17,6.96c-8.05,4.17-19.49,1.37-24.3-6.16c-5.19-8.14-2.71-24.22,11.71-26.23
		c4.59-0.64,9.48,0.84,14.09,0.23c5.29-0.7,4.2,2.48,4.24,5.3c0.02,1.72,0,3.45,0,5.17c-0.26,0.12-0.52,0.24-0.78,0.36
		c-0.65-1.17-1.43-2.3-1.94-3.53c-1.4-3.37-3.95-5.19-7.48-5.21c-3.58-0.02-5.47,2.28-6.68,5.52c-2.2,5.87-1.7,11.55,1,17.01
		c2.25,4.54,8.67,5.9,12.97,3.01C443.75,146.54,444.63,145.86,446.18,144.74z"/>
	<path d="M408.43,181.51c2.91,0,5.61,0,9.39,0c-3.89,2.06-3.84,4.94-3.83,7.81c0.02,6.5,0.09,13-0.03,19.49
		c-0.02,1.3-0.59,3.56-1.25,3.69c-2.03,0.41-4.3,1.12-6.12-1.21c-3.84-4.92-7.93-9.63-11.9-14.45c-1.18-1.43-2.27-2.95-3.48-4.36
		c-0.35-0.4-1.01-0.54-1.52-0.81c-0.18,0.55-0.51,1.09-0.52,1.64c-0.03,4.5-0.25,9.02,0.14,13.48c0.17,1.95,1.61,3.79,2.51,5.76
		c-2.44,0-5.33,0-8.22,0c3.66-2.11,3.12-5.6,3.12-8.88c0.01-3.37-0.29-6.78,0.06-10.12c0.52-5.03-0.78-9.01-5.18-12.16
		c4.81,0,9.62-0.11,14.42,0.09c1.02,0.04,2.2,1.07,2.95,1.94c3.97,4.61,7.82,9.32,12.1,13.87
		C410.67,192.06,413.61,186.39,408.43,181.51z"/>
	<path d="M187.24,212.39c0.49-1.59,1.74-3.44,1.3-4.69c-0.83-2.39-0.95-6.08-5.23-5.44c-1.1,0.17-2.26,0.16-3.36,0
		c-2.54-0.38-3.99,0.63-4.63,3.09c-0.63,2.46-2.39,5.06,1.17,7.15c-2.86,0-5.72,0-7.97,0c1.59-3.16,3.48-6.36,4.86-9.77
		c2.48-6.11,4.72-12.31,6.91-18.53c0.8-2.28,2.16-3.1,4.48-2.85c1.36,0.15,2.75,0.08,4.12,0.01c1.92-0.1,2.86,0.79,3.52,2.59
		c3.06,8.3,6.2,16.57,9.45,24.8c0.5,1.27,1.69,2.27,2.76,3.65C198.64,212.39,192.61,212.39,187.24,212.39z M181.6,189.33
		c-1.02,2.26-1.89,3.74-2.37,5.33c-1.44,4.74-0.31,5.9,4.71,4.82c0.44-0.1,1.11-1.17,0.98-1.56
		C184.02,195.29,182.94,192.72,181.6,189.33z"/>
	<path d="M28.25,119.51c6.53,0,13.06,0,19.58,0c-3.1,1.67-3.28,4.38-3.25,7.32c0.08,5.98-0.12,11.97,0.1,17.95
		c0.06,1.63,0.92,4.23,1.99,4.58c1.34,0.43,3.46-0.74,4.91-1.72c1.36-0.92,2.29-2.48,4.07-4.52c-0.36,3.36-0.55,5.78-0.95,8.17
		c-0.09,0.52-0.9,1.32-1.38,1.33c-8.41,0.08-16.83,0.06-25.43-0.28c3.48-1.6,3.68-4.49,3.67-7.53c-0.03-5.98-0.06-11.97,0.03-17.95
		C31.64,123.86,31.51,121.08,28.25,119.51z"/>
	<path d="M337.76,212.75c0.7-2.57,1.77-4.83,1.87-7.13c0.26-5.99,0.23-12,0.01-17.99c-0.07-1.98-1.07-3.93-1.74-6.22
		c7.1,0,14.88-0.03,22.65,0.08c0.52,0.01,1.37,1.05,1.45,1.69c0.21,1.58,0.07,3.21,0.07,4.67c-2.22-1.33-4.22-2.88-6.48-3.77
		c-2.07-0.81-3.66-0.09-3.39,2.69c0.15,1.61-0.06,3.25,0.07,4.87c0.1,1.28,0.38,3.58,0.76,3.62c1.49,0.16,3.1-0.31,4.59-0.76
		c0.63-0.19,1.09-0.94,1.98-1.77c0,2.84,0,5.29,0,8.15c-1.2-0.89-1.99-1.68-2.95-2.14c-2.9-1.4-4.39-0.43-4.43,2.79
		c-0.02,2,0.16,4.02-0.04,6c-0.33,3.16,1.58,3.57,3.64,2.68c2.37-1.03,4.43-2.77,6.84-4.35c-0.17,1.67-0.23,3.5-0.61,5.26
		c-0.14,0.64-1.07,1.56-1.65,1.57C352.6,212.78,344.81,212.75,337.76,212.75z"/>
	<path d="M495.5,191.72c-1.04-1.8-1.91-3.73-3.16-5.38c-3.47-4.56-9.32-3.8-11.67,1.44c-2.15,4.78-2.16,9.67-0.51,14.58
		c2.12,6.33,8.51,8.48,14.09,4.76c0.68-0.45,1.32-0.96,1.98-1.44c0.25,0.2,0.49,0.4,0.74,0.6c-0.97,1.26-1.72,2.81-2.94,3.75
		c-9.36,7.21-23.51,2.54-26.97-5.13c-4.66-10.33,0.98-22.19,12.38-23.77c3.62-0.5,7.4,0.17,11.1,0.37c0.86,0.05,1.87,0.75,2.53,0.47
		c4.15-1.72,3.21,1.31,3.26,3.38c0.05,2.08,0.01,4.16,0.01,6.25C496.06,191.64,495.78,191.68,495.5,191.72z"/>
	<path d="M516.87,212.82c3.01-1.63,3.12-4.22,3.13-6.84c0.02-6.12,0.18-12.24-0.07-18.34c-0.09-2.05-1.26-4.05-2-6.26
		c6.89,0,14.56-0.05,22.21,0.09c0.69,0.01,1.75,1.24,1.95,2.07c0.33,1.36,0.09,2.85,0.09,3.87c-2.5-1.23-4.74-2.59-7.16-3.45
		c-1.85-0.65-3.1,0.19-2.94,2.48c0.12,1.74-0.13,3.51,0.07,5.23c0.15,1.32,0.73,2.6,1.12,3.9c1.81-0.75,3.64-1.48,5.43-2.29
		c0.32-0.15,0.48-0.68,1.23-1.84c0,3.82,0,6.7,0,9.36c-1.85-0.84-3.65-1.88-5.59-2.4c-0.53-0.14-2.04,1.2-2.12,1.97
		c-0.28,2.46,0.03,4.99-0.15,7.47c-0.19,2.65,1.42,3.24,3.21,2.51c2.6-1.07,4.96-2.75,7.36-4.13c0,0.09,0.03,0.78,0,1.47
		c-0.27,5.14-0.27,5.13-5.32,5.13C530.49,212.81,523.68,212.82,516.87,212.82z"/>
	<path d="M685.76,192.77c0.07,1.37,0.16,2.36,0.18,3.34c0.03,1.47,0.01,2.95,0.01,4.79c-1.36-0.93-2.27-1.75-3.34-2.23
		c-2.79-1.24-4.25-0.3-4.31,2.69c-0.05,2.12,0.12,4.25-0.05,6.36c-0.2,2.55,1.34,3.41,3.17,2.63c2.59-1.11,4.89-2.92,7.63-4.63
		c-0.23,1.86-0.39,3.88-0.81,5.85c-0.1,0.49-1.05,1.15-1.61,1.16c-7.81,0.08-15.61,0.05-23.64-0.31c2.91-1.7,3.31-4.23,3.28-7.05
		c-0.06-5.62,0.19-11.25-0.08-16.85c-0.11-2.34-1.23-4.63-1.96-7.17c6.92,0,14.59-0.05,22.26,0.09c0.65,0.01,1.66,1.26,1.82,2.06
		c0.29,1.54,0.08,3.17,0.08,5.03c-2.08-1.62-3.62-3.42-5.57-4.21c-3.48-1.42-4.46-0.56-4.52,3.12c-0.02,1.37-0.12,2.76,0.01,4.12
		c0.13,1.29,0.47,3.63,0.8,3.64c1.63,0.06,3.3-0.4,4.91-0.86C684.59,194.17,685.01,193.47,685.76,192.77z"/>
	<path d="M615.32,187.56c0.2,0.22,0.07,0.14,0.06,0.06c-0.5-6.27-0.5-6.23,5.57-6.25c6.87-0.01,13.73-0.04,20.6-0.21
		c1.54-0.04,2.38,0.13,2.43,1.85c0.04,1.79,0.23,3.57,0.33,5.05c-2.11-1.41-3.93-2.93-6-3.89c-1.42-0.66-2.61,0.11-2.59,2.04
		c0.05,7.12-0.11,14.25,0.16,21.37c0.06,1.65,1.53,3.25,2.41,5c-5.65,0-11.58,0-18.47,0c3.68-1.85,3.69-4.62,3.7-7.39
		c0.02-5.75,0.05-11.5,0.04-17.25c0-4.11-1.63-5.02-5.19-2.85C617.25,185.77,616.32,186.74,615.32,187.56z"/>
	<polygon class="st1" points="11.56,230.36 760.24,230.36 760.24,223.81 11.56,223.81 11.56,230.36 	"/>
</g>
</svg>
